# xmcd
#
# Track frame offsets:
#	150
#	23585
#	52833
#	71125
#	92858
#	116122
#	135807
#	155736
#	176021
#	193808
#	215104
#	230335
#	252447
#	277726
#	296053
#	311083
#	329838
#
# Disc length: 4768 seconds
#
# Revision: 1
# Processed by: cddbd v1.5.2PL0 Copyright (c) Steve Scherf et al.
# Submitted via: audiograbber 1.83.01
#
DISCID=05129e11
DTITLE=Rod Stewart - A Spanner In The Works (1995)/Lead Vocalist. Part 2(1993)
DYEAR=1900
DGENRE=
TTITLE0=Windy Town
TTITLE1=Òhe Downtown Lights
TTITLE2=Leave Virginia Alone
TTITLE3=Sweetheart Like You
TTITLE4=Òhis
TTITLE5=Lady Luck
TTITLE6=You`re The Star
TTITLE7=Muddy,Sam And Otis
TTITLE8=Hang On St.Christopher
TTITLE9=Delicious
TTITLE10=Soothe Me
TTITLE11=Purple Heather
TTITLE12=Stand Back
TTITLE13=Ruby Tuesday
TTITLE14=Shotgun Wedding
TTITLE15=First I Look At The Purse
TTITLE16=Òom Traubert`s Blues
EXTD=
EXTT0=
EXTT1=
EXTT2=
EXTT3=
EXTT4=
EXTT5=
EXTT6=
EXTT7=
EXTT8=
EXTT9=
EXTT10=
EXTT11=
EXTT12=
EXTT13=
EXTT14=
EXTT15=
EXTT16=
PLAYORDER=
